<svg width="130" height="131" viewBox="0 0 130 131" fill="none" xmlns="http://www.w3.org/2000/svg">
<path d="M56.8633 44.8581C58.0572 46.9105 60.2035 48.1312 62.5108 48.1312C62.8328 48.1312 63.1547 48.1178 63.4633 48.0775C65.0998 47.8361 66.495 47.8361 68.1315 48.0775C70.7876 48.4666 73.3766 47.2056 74.7315 44.8715L81.4521 33.2143C82.485 31.4301 82.6192 29.3106 81.8412 27.4058C81.0631 25.5143 79.4936 24.1058 77.5217 23.5692C73.6985 22.5229 69.7547 21.9863 65.7974 21.9863C61.8535 21.9863 57.8963 22.5095 54.0731 23.5692C52.1146 24.1058 50.5317 25.5143 49.7536 27.4058C48.9756 29.3106 49.1097 31.4301 50.1427 33.2143L56.8633 44.8581ZM55.2134 29.646C55.267 29.5119 55.3877 29.3241 55.6426 29.257C58.9694 28.3448 62.3901 27.8753 65.8108 27.8753C69.2315 27.8753 72.6522 28.3448 75.9656 29.257C76.2205 29.3241 76.3412 29.5119 76.3949 29.646C76.4485 29.7667 76.5022 30.0082 76.3546 30.2631L69.634 41.9203C69.4998 42.1617 69.2449 42.2825 68.9901 42.2422C66.7901 41.9203 64.8181 41.9203 62.6182 42.2422C62.3633 42.2691 62.1084 42.1483 61.9743 41.9203L55.2536 30.2631C55.106 30.0082 55.1597 29.7667 55.2134 29.646ZM52.2353 65.0067C52.2353 72.0493 57.9633 77.7907 65.0194 77.7907C72.0754 77.7907 77.8034 72.0493 77.8034 65.0067C77.8034 57.964 72.0754 52.2226 65.0194 52.2226C57.9767 52.2226 52.2353 57.9506 52.2353 65.0067ZM71.901 64.9932C71.901 68.7896 68.8157 71.8749 65.0194 71.8749C61.2231 71.8749 58.1377 68.7896 58.1377 64.9932C58.1377 61.1969 61.2231 58.1116 65.0194 58.1116C68.8157 58.1116 71.901 61.1969 71.901 64.9932Z" fill="white"/>
<path d="M124.648 50.0227H124.138C122.703 44.3215 120.435 38.8618 117.377 33.7643L117.766 33.3753C119.859 31.296 119.859 27.9022 117.766 25.8095L104.177 12.2206C103.171 11.2011 101.83 10.6511 100.394 10.6511C98.9588 10.6511 97.6174 11.2145 96.6113 12.2206L96.2223 12.6096C91.1248 9.55113 85.6651 7.28408 79.9639 5.84873V5.35239C79.9639 2.4012 77.5627 0 74.6115 0H55.3885C52.4373 0 50.0361 2.4012 50.0361 5.35239V5.86214C44.3349 7.29749 38.8752 9.56454 33.7777 12.6231L33.3887 12.234C31.3095 10.1414 27.9156 10.1414 25.8229 12.234L12.234 25.8229C10.1414 27.9022 10.1414 31.296 12.234 33.3887L12.6231 33.7777C9.56454 38.8752 7.29749 44.3349 5.86214 50.0361H5.35239C2.4012 50.0361 0 52.4373 0 55.3885V74.6115C0 77.5627 2.4012 79.9639 5.35239 79.9639H5.86214C7.31091 85.665 9.57796 91.1248 12.6365 96.2223L12.2474 96.6113C10.1548 98.6905 10.1548 102.084 12.2474 104.177L25.8363 117.793C27.9156 119.885 31.3095 119.885 33.4021 117.793L33.7911 117.404C38.8887 120.462 44.3484 122.729 50.0495 124.165V124.674C50.0495 127.626 52.4507 130.027 55.4019 130.027H74.6383C77.5895 130.027 79.9907 127.626 79.9907 124.661V124.151C85.6919 122.716 91.1516 120.449 96.2491 117.39L96.6381 117.779C98.7174 119.872 102.111 119.872 104.204 117.779L117.766 104.164C119.859 102.084 119.859 98.6905 117.766 96.5979L117.377 96.2088C120.435 91.1113 122.703 85.6516 124.138 79.9505H124.648C127.599 79.9505 130 77.5493 130 74.5981V55.3751C130 52.4239 127.599 50.0227 124.648 50.0227ZM124.151 74.0481H119.443L118.946 76.3956C117.551 83.009 114.936 89.2735 111.193 95.0284L109.892 97.0405L113.245 100.394L100.421 113.205L97.0674 109.851L95.0552 111.166C89.3138 114.922 83.0358 117.525 76.4225 118.92L74.0749 119.416V124.124H55.9787V119.456L53.6312 118.96C47.0178 117.565 40.7399 114.949 34.9985 111.206L32.9863 109.892L29.6326 113.245L16.8084 100.421L20.162 97.0674L18.8608 95.0552C15.1047 89.3138 12.5023 83.0358 11.1072 76.4224L10.6109 74.0749H5.90238V55.9519H10.584L11.0804 53.6044C12.4755 46.991 15.0913 40.7264 18.834 34.9716L20.1352 32.9594L16.7815 29.6058L29.6058 16.795L32.9594 20.1486L34.9716 18.834C40.713 15.0779 46.991 12.4755 53.6044 11.0804L55.9519 10.584V5.87555H74.0749V10.5706L76.4225 11.067C83.0358 12.4621 89.3004 15.0779 95.0552 18.8206L97.0674 20.1352L100.421 16.7815L113.245 29.5924L109.892 32.946L111.193 34.9582C114.949 40.6996 117.551 46.9776 118.946 53.591L119.443 55.9385H124.151V74.0481Z" fill="white"/>
<path d="M102.716 44.1604C100.73 40.7397 98.3022 37.5873 95.4717 34.797C94.023 33.3617 92.0242 32.7044 89.9852 32.9727C87.9328 33.2544 86.1755 34.4348 85.1426 36.219L78.4085 47.8762C77.0536 50.2103 77.2682 53.0944 78.9316 55.2005C79.4414 55.8444 79.8707 56.4749 80.2463 57.1322C80.6219 57.7895 80.9438 58.4736 81.2524 59.2383C82.245 61.7334 84.6328 63.3565 87.3291 63.3565H100.77C102.836 63.3565 104.741 62.4175 106.042 60.7675C107.303 59.1444 107.719 57.0785 107.209 55.1066C106.203 51.2701 104.687 47.5811 102.716 44.1604ZM101.334 57.1993C101.253 57.3066 101.079 57.481 100.784 57.481H87.3291C87.0743 57.481 86.8328 57.32 86.7389 57.0785C86.3365 56.0322 85.8804 55.0932 85.3572 54.1944C84.834 53.2822 84.2438 52.4237 83.5597 51.5518C83.3987 51.3505 83.3718 51.0688 83.506 50.8408L90.2401 39.1836C90.3876 38.9153 90.6157 38.8482 90.7498 38.8348C90.7767 38.8214 90.8035 38.8214 90.8437 38.8214C90.9779 38.8214 91.1388 38.8616 91.2864 39.036C93.7413 41.4506 95.8473 44.1872 97.5644 47.1518C99.2815 50.1164 100.583 53.3091 101.455 56.6359C101.522 56.8907 101.428 57.0785 101.334 57.1993ZM99.979 67.9979H86.5243C83.8279 67.9979 81.4402 69.6077 80.4475 72.1162C80.1524 72.8808 79.817 73.565 79.4414 74.2223C79.0658 74.8796 78.6365 75.5101 78.1268 76.154C76.4634 78.2735 76.2487 81.1442 77.6036 83.4783L84.3243 95.1355C85.3572 96.9196 87.1279 98.1001 89.1669 98.3818C89.462 98.4355 89.7706 98.4489 90.0657 98.4489C91.7827 98.4489 93.4059 97.7782 94.64 96.544C97.4705 93.7538 99.9119 90.6014 101.884 87.1807C103.869 83.76 105.372 80.071 106.378 76.2345C106.887 74.2625 106.458 72.1967 105.211 70.5735C103.936 68.937 102.031 67.9979 99.979 67.9979ZM100.663 74.7857C99.7912 78.1125 98.49 81.3051 96.7729 84.2697C95.0559 87.2343 92.9498 89.9709 90.495 92.3855C90.3072 92.5599 90.0925 92.5867 89.945 92.5599C89.8242 92.5331 89.5828 92.466 89.4352 92.2111L82.7145 80.5539C82.5938 80.3259 82.6072 80.0442 82.7682 79.843C83.4523 78.971 84.0426 78.0991 84.5657 77.2003C85.0889 76.2881 85.5316 75.3491 85.9474 74.3162C86.0413 74.0747 86.2694 73.9137 86.5377 73.9137V73.9406H99.9924C100.288 73.9406 100.462 74.115 100.542 74.2223C100.636 74.343 100.73 74.5308 100.663 74.7857ZM73.1768 85.1417C71.822 82.8076 69.233 81.5466 66.5635 81.9356C64.9269 82.1771 63.5318 82.1771 61.8952 81.9356C59.2391 81.5466 56.6367 82.8076 55.2953 85.1417L48.5746 96.7989C47.5417 98.583 47.4075 100.703 48.1856 102.607C48.9636 104.499 50.5331 105.907 52.5051 106.444C56.3282 107.49 60.2721 108.027 64.2293 108.027C68.1866 108.027 72.1305 107.49 75.967 106.444C77.9256 105.907 79.5085 104.499 80.2865 102.607C81.0646 100.703 80.9304 98.583 79.8975 96.7989L73.1768 85.1417ZM74.8268 100.367C74.7732 100.501 74.6524 100.689 74.3975 100.756C71.0707 101.668 67.65 102.138 64.2293 102.138C60.7952 102.138 57.3745 101.668 54.0611 100.756C53.8063 100.689 53.6855 100.501 53.6319 100.367C53.5782 100.246 53.5246 100.005 53.6721 99.7501L60.4062 88.0929C60.5269 87.8917 60.7282 87.7709 60.9562 87.7709H61.0501C63.2501 88.0929 65.222 88.0929 67.422 87.7709C67.6769 87.7441 67.9318 87.8648 68.0659 88.0929L74.7866 99.7501C74.9341 100.005 74.8805 100.246 74.8268 100.367ZM51.1368 74.7991C50.627 74.1552 50.1978 73.5247 49.8222 72.8674C49.4331 72.2101 49.1112 71.526 48.8027 70.7613C47.81 68.2528 45.4222 66.6431 42.7259 66.6431H29.2711C27.2053 66.6431 25.3004 67.5821 24.0395 69.2187C22.7785 70.8418 22.3627 72.9077 22.8724 74.8796C23.8785 78.7161 25.3943 82.4051 27.3663 85.8258C29.3516 89.2465 31.7797 92.3989 34.6101 95.1892C35.8442 96.4233 37.4808 97.0806 39.1979 97.0806C39.493 97.0806 39.7881 97.0672 40.0832 97.0269C42.1356 96.7452 43.893 95.5648 44.9259 93.7806L51.66 82.1234C53.0148 79.7893 52.8002 76.9052 51.1368 74.7991ZM46.5356 79.1588L39.8149 90.816C39.6674 91.0843 39.4393 91.1514 39.3052 91.1648C39.1576 91.1916 38.943 91.1782 38.7552 90.9904C36.3003 88.5758 34.1943 85.8392 32.4772 82.8746C30.7601 79.91 29.4589 76.7174 28.587 73.3906C28.5199 73.1357 28.6138 72.9479 28.7077 72.8272C28.7882 72.7199 28.9626 72.5455 29.2577 72.5455V72.5186H42.7259C42.9942 72.5186 43.2222 72.6796 43.3161 72.9211C43.7186 73.954 44.1747 74.893 44.6978 75.8052C45.221 76.7174 45.8112 77.5759 46.4954 78.4478C46.6563 78.6491 46.6698 78.9308 46.5356 79.1588ZM30.0492 61.9882H43.5039C46.2002 61.9882 48.588 60.3785 49.5807 57.8834C49.8892 57.1188 50.2246 56.4346 50.6002 55.7773C50.9758 55.12 51.4051 54.4895 51.9148 53.8456C53.5782 51.7261 53.7929 48.8554 52.438 46.5213L45.7173 34.8641C44.6844 33.08 42.9137 31.8995 40.8747 31.6178C38.8357 31.3361 36.8369 32.0068 35.3882 33.4422C32.5577 36.2324 30.1163 39.3848 28.1443 42.8055C26.159 46.2262 24.6565 49.9152 23.6505 53.7517C23.1407 55.7237 23.57 57.7895 24.8175 59.4127C26.0919 61.0492 27.9968 61.9882 30.0492 61.9882ZM29.365 55.2407C30.237 51.914 31.5382 48.7213 33.2552 45.7567C34.9723 42.7921 37.0784 40.0555 39.5332 37.6409C39.6808 37.4934 39.8552 37.4531 39.9893 37.4531C40.0296 37.4531 40.0564 37.4665 40.0564 37.4397C40.1771 37.4665 40.4186 37.5336 40.5662 37.7885L47.3002 49.4457C47.4344 49.6737 47.421 49.9554 47.26 50.1566C46.5759 51.0286 45.9856 51.9005 45.4624 52.7993C44.9527 53.7115 44.4966 54.6505 44.0808 55.6834C43.9869 55.9249 43.7588 56.0859 43.4905 56.0859H30.0358C29.7406 56.0859 29.5663 55.9115 29.4858 55.8042C29.3919 55.6834 29.298 55.4956 29.365 55.2407Z" fill="white"/>
</svg>
