<?xml version="1.0" encoding="utf-8"?>
<!-- Generator: $$$/GeneralStr/196=Adobe Illustrator 27.6.0, SVG Export Plug-In . SVG Version: 6.00 Build 0)  -->
<svg version="1.0"
     xmlns="http://www.w3.org/2000/svg"
     x="0px"
     y="0px"
     viewBox="0 0 130 130"
     style="enable-background:new 0 0 130 130;"
     xml:space="preserve">
<style type="text/css">
	.st1{display:inline;fill:#947500;stroke:#FFFFFF;stroke-miterlimit:10;}
	.st2{fill:#FFFFFF;}
</style>
    <g id="图层_1">
	<path
        class="st2"
        d="M65,18.3l19.5,19.5h-39L65,18.3z M65,111.7l19.5-19.5h-39L65,111.7z M18.3,65l19.5-19.5v39L18.3,65z M111.7,65
		L92.2,45.5v39L111.7,65z"/>
</g>
    <g id="图层_2">
	<path
        class="st2"
        d="M65,130c-35.8,0-65-29.2-65-65C0,29.2,29.2,0,65,0c35.8,0,65,29.2,65,65C130,100.8,100.8,130,65,130z M65,11.8
		c-29.3,0-53.2,23.9-53.2,53.2s23.9,53.2,53.2,53.2s53.2-23.9,53.2-53.2S94.3,11.8,65,11.8z"/>
</g>
</svg>
