<?xml version="1.0" encoding="UTF-8"?>
<svg id="_图层_1" data-name="图层 1" xmlns="http://www.w3.org/2000/svg" viewBox="0 0 200 200">
  <defs>
    <style>
      .cls-1 {
        fill: #fff;
      }

      .cls-2 {
        fill: #edca4c;
      }

      .cls-3 {
        fill: #4d8dff;
      }

      .cls-4 {
        fill: #f0f0ff;
      }

      .cls-5 {
        fill: #ff5f5f;
      }

      .cls-6 {
        fill: #ffe35f;
      }

      .cls-7 {
        fill: #6e6e96;
      }

      .cls-8 {
        fill: #aadbf7;
      }
    </style>
  </defs>
  <path class="cls-3" d="m53.33,0h93.34c35.55,0,53.33,17.78,53.33,53.33v93.34c0,35.55-17.78,53.33-53.33,53.33H53.33c-35.55,0-53.33-17.78-53.33-53.33V53.33C0,17.78,17.78,0,53.33,0Z"/>
  <g>
    <path class="cls-6" d="m69.67,96.94c-7.51,0-12.34-7.37-10.75-14.7l6.5-26.55c1.59-7.34,9.03-13.34,16.54-13.34h60.28c7.51,0,14.57,6.07,15.69,13.49l4.48,26.24c1.12,7.42-4.1,14.86-11.61,14.86,0,0-81.12,0-81.12,0Z"/>
    <path class="cls-7" d="m69.67,94.56c-2.89,0-5.35-1.08-6.93-3.03-1.57-1.95-2.1-5.95-1.49-8.78l6.48-26.49c1.36-6.27,7.87-11.52,14.22-11.52h60.28c6.28,0,12.39,5.25,13.33,11.46l4.49,26.28c.43,2.85-.29,6.92-2.03,8.94-1.74,2.02-4.31,3.13-7.23,3.13,0,0-81.12,0-81.12,0Zm81.12,4.78c4.34,0,8.19-1.7,10.85-4.79,2.66-3.09,3.77-8.52,3.12-12.81,0-.05-4.49-26.28-4.49-26.28-1.29-8.52-9.38-15.48-18.04-15.48h-60.28c-8.59,0-17.05,6.83-18.87,15.22l-6.48,26.49c-.94,4.33-.07,9.75,2.43,12.85,2.5,3.1,6.28,4.81,10.65,4.81h81.12Z"/>
    <path class="cls-6" d="m34.72,137.96s-7.3-.02-10.39-.04c-3.08-.02-5.59-2.81-5.56-6.2l.11-22.59.05-3.54c0-6.6,5.41-10.76,12.3-12.32l24.79-5.17h108.41c3.19,1.13,13.49,1.34,13.49,14.23l.19,30.36c.03,3.39-2.72,6.14-6.11,6.12l-6.23-.04"/>
    <path class="cls-1" d="m27.58,116.95l.05-6.8c0-6.45,5.29-7.11,12.03-8.63l21.96-4.58,108.3-.48c1.1.39,3.06.67,5.14,1.42-2.34-7.53-9.86-7.83-12.48-8.76H56.57s-24.24,5.06-24.24,5.06c-6.74,1.53-12.03,5.6-12.03,12.05l-.05,3.39-.1,22.09c-.02,3.32,2.42,6.04,5.44,6.07h1.9s.1-20.82.1-20.82h0Z"/>
    <path class="cls-2" d="m176.56,103.69c0-12.89-10.3-13.09-13.49-14.23H54.66l-24.79,5.17c-6.89,1.56-12.3,5.72-12.3,12.32l-.05,3.54-.11,22.59c-.02,3.39,2.48,6.18,5.56,6.2,3.09.02,10.39.04,10.39.04l131.05.81,6.23.04c3.35.02,6.09-2.68,6.11-6.03,0-.03,0-.06,0-.09l-.19-30.36Zm-15.63,26.25l-5.68-.04-119.55-.64s-6.66-.01-9.47-.03c-2.81-.02-5.1-2.25-5.08-4.95l.1-14.62.05-5.55c0-5.27,4.93-8.59,11.22-9.83l22.62-4.13h98.9c2.91.91,12.31,1.07,12.31,11.36l.17,23.55c.03,2.71-2.48,4.91-5.58,4.89h0Z"/>
    <path class="cls-7" d="m34.73,135.57l-10.37-.04c-1.74-.01-3.21-1.75-3.19-3.8l.11-22.59.05-3.54c0-6.9,7.3-9.3,10.44-10.01l24.75-5.16c-.16.03-.32.05-.49.05h108.41c-.27,0-.54-.05-.8-.14.59.21,1.27.37,2.06.56,4.15.98,9.84,2.32,9.84,11.42l.19,30.37c.01.99-.37,1.94-1.07,2.64-.7.7-1.65,1.09-2.63,1.08l-6.22-.04c-1.32,0-2.4,1.05-2.4,2.37,0,1.32,1.05,2.4,2.37,2.4h0l6.22.04c2.27.02,4.45-.87,6.05-2.49,1.61-1.6,2.5-3.78,2.47-6.05l-.19-30.35c0-12.87-9.47-15.1-13.52-16.06-.62-.15-1.21-.29-1.56-.41-.26-.09-.53-.14-.8-.14H56.03c-.16,0-.33.02-.49.05l-24.79,5.17c-8.91,2.02-14.2,7.5-14.2,14.66l-.05,3.52-.11,22.59c-.03,4.71,3.53,8.57,7.93,8.6l10.4.04c1.32,0,2.39-1.06,2.39-2.38s-1.06-2.39-2.38-2.39Z"/>
    <path class="cls-7" d="m70.55,140.75h52.09c1.32,0,2.39-1.07,2.39-2.39s-1.07-2.39-2.39-2.39h-52.09c-1.32,0-2.39,1.07-2.39,2.39s1.07,2.39,2.39,2.39h0Zm-14.53-52.66h4.78v32.25h-4.78v-32.25Z"/>
    <path class="cls-2" d="m26.84,129.23s3.36-18.38,24.86-18.38,26.61,18.64,26.61,18.64c0,0-51.47-.26-51.47-.26Z"/>
    <path class="cls-2" d="m73.25,120.4h48.41v6.91h-48.41v-6.91Z"/>
    <path class="cls-2" d="m116.23,129.92s4.73-19.74,26.22-19.74c25.93,0,25.25,20,25.25,20l-51.47-.26h0Z"/>
    <path class="cls-4" d="m182.34,138.13c0,1.88-1.54,3.41-3.41,3.41H18.8c-1.88,0-3.41-1.54-3.41-3.41v-6.72c0-1.88,1.54-3.41,3.41-3.41h160.13c1.88,0,3.41,1.54,3.41,3.41v6.72Z"/>
    <path class="cls-7" d="m179.96,138.13c0,.56-.46,1.02-1.02,1.02H18.8c-.56,0-1.02-.46-1.02-1.02v-6.72c0-.56.47-1.02,1.02-1.02h160.13c.55,0,1.02.47,1.02,1.02v6.72Zm4.78-6.71c0-3.2-2.6-5.8-5.8-5.8H18.8c-3.2,0-5.8,2.6-5.8,5.8v6.72c0,3.2,2.6,5.8,5.8,5.8h160.13c3.2,0,5.8-2.6,5.8-5.8v-6.72Z"/>
    <path class="cls-7" d="m15.39,135.17h165.96v4.78H15.39v-4.78Z"/>
    <path class="cls-4" d="m34.64,138.17c0,10.01,8.11,18.12,18.12,18.12,10.01,0,18.12-8.11,18.12-18.12h0c0-10.01-8.11-18.13-18.12-18.13-10.01,0-18.12,8.11-18.12,18.12h0Z"/>
    <path class="cls-7" d="m52.76,124.14c7.73,0,14.03,6.29,14.03,14.03,0,3.72-1.47,7.29-4.11,9.92-2.63,2.64-6.2,4.12-9.92,4.11-7.73,0-14.03-6.29-14.03-14.03s6.29-14.03,14.03-14.03Zm-22.21,14.03c0,12.25,9.96,22.21,22.22,22.21s22.22-9.96,22.22-22.21-9.96-22.22-22.22-22.22-22.22,9.97-22.22,22.22h0Z"/>
    <path class="cls-7" d="m52.01,131.29c7.03,0,12.93,4.83,14.58,11.35.3-1.18.45-2.41.45-3.68,0-8.3-6.73-15.03-15.03-15.03s-15.03,6.73-15.03,15.03c0,1.27.16,2.5.46,3.68,1.64-6.52,7.54-11.35,14.58-11.35Z"/>
    <path class="cls-7" d="m47.46,138.42c0,2.72,2.2,4.92,4.92,4.92s4.92-2.2,4.92-4.92h0c0-2.72-2.2-4.92-4.92-4.92s-4.92,2.2-4.92,4.92Z"/>
    <path class="cls-4" d="m125.99,138.17c0,10.01,8.11,18.12,18.12,18.12s18.12-8.11,18.12-18.12h0c0-10.01-8.11-18.12-18.12-18.12-10.01,0-18.12,8.11-18.12,18.12h0s0,0,0,0Z"/>
    <path class="cls-7" d="m144.11,124.14c7.73,0,14.03,6.29,14.03,14.03,0,3.72-1.47,7.29-4.11,9.92-2.62,2.64-6.2,4.12-9.92,4.11-7.73,0-14.03-6.29-14.03-14.03,0-7.73,6.29-14.03,14.03-14.03Zm-22.22,14.03c0,12.25,9.96,22.21,22.21,22.21s22.22-9.96,22.22-22.21-9.96-22.22-22.22-22.22-22.21,9.97-22.21,22.22h0Z"/>
    <path class="cls-7" d="m143.37,131.29c7.03,0,12.93,4.83,14.58,11.35.3-1.18.45-2.41.45-3.68,0-8.3-6.73-15.03-15.03-15.03s-15.03,6.73-15.03,15.03c0,1.27.16,2.5.46,3.68,1.64-6.52,7.54-11.35,14.58-11.35Z"/>
    <path class="cls-7" d="m138.81,138.42c0,2.72,2.2,4.92,4.92,4.92s4.92-2.2,4.92-4.92c0-2.72-2.2-4.93-4.92-4.93-2.72,0-4.93,2.2-4.93,4.92h0s0,0,0,0Z"/>
    <path class="cls-7" d="m110.05,88.98h4.78v36.83h-4.78v-36.83Zm-12.17,10.81h6.82v4.78h-6.82v-4.78Z"/>
    <path class="cls-1" d="m65.3,96.92v17.04l-4.5-1.82v-15.03l4.5-.19Z"/>
    <path class="cls-8" d="m77.6,79.18c-5.49,0-5.62-4.5-4.45-10l1.34-7.33c1.55-7.32,6.22-10,12.1-10h51.07c7.26,0,9.99,4.55,10.81,10.12l1.23,7.09c.82,5.57.38,10.12-5.11,10.12h-66.97Z"/>
    <path class="cls-7" d="m77.6,76.79c-1.07,0-1.78-.21-2.13-.64-.49-.61-.89-2.22.01-6.48.01-.06,1.35-7.39,1.35-7.39,1.16-5.47,4.26-8.04,9.75-8.04h51.07c5.02,0,7.62,2.49,8.44,8.08.01.06,1.24,7.15,1.24,7.15.5,3.41.35,5.66-.47,6.6-.15.18-.62.72-2.29.72h-66.97s0,0,0,0Zm66.97,4.78c2.56,0,4.54-.8,5.9-2.38,2.36-2.73,2.08-7.04,1.57-10.48l-1.24-7.15c-1.47-9.99-7.97-12.1-13.16-12.1h-51.07c-7.68,0-12.81,4.23-14.43,11.9-.01.07-1.35,7.39-1.35,7.39-.71,3.37-1.26,7.67.97,10.41,1.29,1.6,3.26,2.41,5.84,2.41,0,0,66.97,0,66.97,0Z"/>
    <path class="cls-7" d="m109.93,51.84h4.78v27.33h-4.78v-27.33Z"/>
    <path class="cls-7" d="m77.37,60.36h68.34l-3.02-7.57h-61.45l-3.87,7.57Z"/>
    <path class="cls-7" d="m114.71,60.36h5.8v16.43h-5.8v-16.43Z"/>
    <path class="cls-1" d="m89.46,65.8h-9.55l.68-5.12h8.87v5.12Z"/>
    <path class="cls-1" d="m120.74,60.68h8.87v5.12h-8.87v-5.12Z"/>
    <path class="cls-1" d="m18.95,114.69h9.23v13.31h-9.23v-13.31Z"/>
    <path class="cls-7" d="m28.18,130.43h-9.23c-1.35,0-2.44-1.09-2.44-2.44h0v-13.31c0-1.35,1.09-2.44,2.44-2.44h9.23c1.35,0,2.44,1.09,2.44,2.44h0v13.31c0,1.35-1.09,2.44-2.44,2.44h0Zm-6.79-4.87h4.36v-8.43h-4.36v8.43Z"/>
    <path class="cls-5" d="m170.44,113.32h7.85v14.67h-7.85v-14.67Z"/>
    <path class="cls-7" d="m178.28,130.43h-7.85c-1.35,0-2.44-1.09-2.44-2.44h0v-14.67c0-1.35,1.09-2.44,2.44-2.44h7.85c1.35,0,2.44,1.09,2.44,2.44h0v14.67c0,1.35-1.09,2.44-2.44,2.44Zm-5.41-4.87h2.97v-9.8h-2.97v9.8Z"/>
    <path class="cls-7" d="m152.45,99.79h6.82v4.78h-6.82v-4.78Z"/>
  </g>
</svg>